PathFileType	4	(X/Y/Z)	W:\OA_GaitRetraining\ACL OpenCap study\PS1\Edited\Trimmed_C90_L101.trc
DataRate	CameraRate	NumFrames	NumMarkers	Units	OrigDataRate	OrigDataStartFrame	OrigNumFrames
200.00	200.00	       5	46	mm	200.00	129	       147
Frame#	Time	C7			R_Shoulder			L_Shoulder			Sternum			R_humerus			R_elbow_med			R_elbow_lat			R_forearm			R_wrist_radius			R_wrist_ulna			L_humerus			L_elbow_med			L_elbow_lat			L_forearm			L_wrist_radius			L_wrist_ulna			r.ASIS			r.PSIS			L.ASIS			L.PSIS			r_thigh1			r_thigh2			r_thigh3			r_thigh4			r_thigh5			r_knee			r_shank_antsup			r_sh2			r_sh3			r_sh4			r_ankle			r_calc			r_5meta			r_toe			L_thigh1			L_thigh2			L_thigh3			L_thigh4			L_knee			L_shank_antsup			L_sh2			L_sh3			L_ankle			L_calc			L_5meta			L_toe			
		X1	Y1	Z1	X2	Y2	Z2	X3	Y3	Z3	X4	Y4	Z4	X5	Y5	Z5	X6	Y6	Z6	X7	Y7	Z7	X8	Y8	Z8	X9	Y9	Z9	X10	Y10	Z10	X11	Y11	Z11	X12	Y12	Z12	X13	Y13	Z13	X14	Y14	Z14	X15	Y15	Z15	X16	Y16	Z16	X17	Y17	Z17	X18	Y18	Z18	X19	Y19	Z19	X20	Y20	Z20	X21	Y21	Z21	X22	Y22	Z22	X23	Y23	Z23	X24	Y24	Z24	X25	Y25	Z25	X26	Y26	Z26	X27	Y27	Z27	X28	Y28	Z28	X29	Y29	Z29	X30	Y30	Z30	X31	Y31	Z31	X32	Y32	Z32	X33	Y33	Z33	X34	Y34	Z34	X35	Y35	Z35	X36	Y36	Z36	X37	Y37	Z37	X38	Y38	Z38	X39	Y39	Z39	X40	Y40	Z40	X41	Y41	Z41	X42	Y42	Z42	X43	Y43	Z43	X44	Y44	Z44	X45	Y45	Z45	X46	Y46	Z46	

129	0.640	1145.72217	-360.83810	1293.78076	1113.06226	-523.28247	1268.40771	1276.87048	-345.75690	1245.35876	1213.15735	-461.04590	1188.75293	877.08093	-511.84290	1281.90503	810.79877	-406.93793	1255.06689	795.04413	-471.59979	1282.05090	650.16553	-481.77710	1231.99829	571.38916	-444.97125	1233.34863	578.51160	-471.00851	1189.14832	1379.54724	-364.59988	1135.76050	1398.59375	-425.09872	962.60858	1458.70227	-421.12210	1010.88434	1442.98853	-489.00720	1072.72803	1377.64465	-597.06403	1133.65735	1426.12805	-611.83368	1119.79321	1010.65289	-492.82123	811.74615	913.51025	-323.63940	909.21185	1150.84387	-274.06232	836.07233	946.73749	-266.38846	919.52277	990.56726	-553.22131	768.65833	1079.06018	-621.83990	716.93109	1057.74854	-647.46875	669.49976	938.38586	-548.44330	670.85028	1025.38782	-608.93134	624.54572	1163.39966	-697.46039	565.43481	1215.67981	-718.74512	470.14801	1270.59607	-693.29730	366.55539	1167.98584	-661.55286	456.24597	1213.63928	-630.31848	354.09628	1299.99255	-627.72504	213.27501	1329.16431	-544.86456	177.70284	1345.07336	-726.41254	183.90739	1392.65283	-730.13721	245.40311	1172.20483	-162.16414	693.74988	1165.68945	-104.43529	568.67926	1082.58179	-96.60103	737.24481	1080.61694	-41.29464	608.57727	1105.83044	17.44516	476.28012	1109.24390	113.56434	339.79016	1039.64856	141.25592	389.54105	1001.40344	196.08789	288.13922	1015.03406	261.61783	196.68422	936.31909	257.35324	210.14400	1041.14075	322.87961	81.85057	1064.87646	253.99626	62.80768	
130	0.645	1150.84387	-373.08096	1297.05115	1117.37231	-535.23175	1272.21008	1283.17578	-359.49484	1250.44385	1217.86279	-474.32492	1192.91980	881.38306	-519.47363	1285.58496	817.44342	-412.91431	1259.09485	799.89966	-477.01974	1285.57068	655.24963	-484.15747	1234.63062	577.24530	-445.46121	1236.21191	584.04749	-471.44403	1191.53052	1386.11719	-377.54941	1139.88831	1405.15723	-436.24527	966.57220	1465.10974	-433.10370	1015.10828	1449.31104	-502.10104	1075.50281	1384.18713	-611.65033	1134.19531	1432.70178	-626.02173	1120.02869	1018.66132	-502.60794	813.53937	922.64600	-333.82077	912.51233	1160.00891	-285.63229	840.16821	956.15240	-276.65244	923.14246	999.01703	-563.13965	769.43115	1086.47852	-632.01086	716.17371	1064.33838	-657.12830	668.65771	945.71973	-557.46991	672.36975	1032.40564	-617.78400	624.18781	1169.14734	-706.55005	562.59393	1221.59436	-729.22101	467.49542	1277.85547	-705.87653	364.30112	1174.73413	-671.62885	452.51868	1222.05334	-642.27936	350.37888	1309.67017	-642.82123	210.46930	1340.20959	-561.31317	174.03650	1353.34009	-742.57214	182.84360	1399.99512	-746.49719	245.03667	1180.98486	-172.65346	695.66541	1171.49634	-114.85795	570.84283	1092.72754	-106.88667	741.54596	1087.79858	-51.03495	613.25250	1109.95532	8.34197	480.70947	1113.63513	104.79054	344.41071	1044.09412	133.10521	394.04468	1006.82349	188.38812	292.36392	1021.82495	253.20303	201.80334	944.06525	248.31189	217.65636	1045.67883	317.05133	88.53584	1068.15662	248.36177	65.69479	
131	0.650	1155.29749	-385.38644	1300.79004	1121.23169	-546.94489	1275.37036	1288.97180	-373.16080	1254.86609	1222.64941	-487.58286	1196.77002	885.92249	-527.01996	1288.58606	824.30792	-419.03525	1262.56616	805.00226	-482.41324	1288.72363	660.47174	-486.69287	1237.10449	583.27533	-446.51874	1238.37195	589.78320	-471.89954	1193.63696	1392.84387	-390.33011	1143.82751	1411.74744	-447.31540	970.15417	1471.06091	-444.84448	1018.76202	1455.26428	-515.08771	1077.81409	1390.97766	-626.55640	1134.24792	1439.60608	-639.50592	1119.96082	1026.71851	-512.42755	815.21375	931.51062	-343.84665	915.87573	1169.06262	-297.29547	844.00006	965.42340	-286.46622	925.96985	1007.69269	-572.98511	769.98010	1093.95276	-642.04230	714.73071	1071.44080	-666.47363	667.67743	952.99420	-566.58344	673.69208	1038.85840	-626.94012	623.91742	1174.85889	-715.48175	559.39124	1227.38123	-739.53766	464.71936	1284.94299	-718.26196	361.66949	1181.35779	-681.53461	448.43530	1229.77429	-654.20551	346.56451	1319.01880	-657.69702	207.42639	1351.26062	-577.10907	170.18399	1361.27734	-758.02502	180.78139	1407.63208	-762.27930	244.10280	1189.85205	-183.35652	697.19965	1177.63062	-125.59064	572.89740	1103.19324	-117.15193	745.42773	1095.75378	-61.06566	617.28766	1114.63379	-1.00022	484.84314	1118.22388	95.66309	348.71533	1048.96155	124.63036	398.34543	1012.27881	180.30862	296.73959	1028.07446	244.53928	206.70215	950.52649	239.01172	223.99319	1051.14685	310.42545	95.52309	1071.65259	242.03430	69.11695	
132	0.655	1162.47119	-398.80878	1304.50781	1124.48218	-558.42438	1277.87756	1294.33118	-386.65741	1258.64941	1227.45239	-500.72165	1200.24255	890.48688	-534.59180	1291.74622	831.26605	-425.30170	1265.72253	810.03619	-488.36813	1291.43311	665.77539	-489.20230	1238.94507	589.56940	-447.28702	1240.37036	595.74670	-472.60590	1195.33984	1399.52832	-403.01151	1147.51392	1418.27356	-458.11655	973.46210	1477.52197	-456.55597	1022.06177	1461.79504	-527.85577	1079.73792	1398.02100	-640.27100	1133.94861	1446.43286	-653.91534	1119.07898	1034.81995	-522.34210	816.84180	940.60760	-354.16180	918.72620	1178.02319	-308.84085	847.58728	974.84723	-297.42450	929.64886	1016.63092	-582.80408	770.29828	1101.69690	-651.73108	713.58002	1078.40662	-675.84796	666.36072	959.94147	-576.07031	674.90021	1045.28748	-636.07385	623.55853	1180.54724	-724.21448	555.92413	1233.09741	-749.67163	461.52396	1291.91455	-730.39600	358.75223	1187.43030	-691.58215	444.06540	1237.93506	-665.81396	342.24625	1328.16162	-672.20062	204.01691	1361.94360	-592.62360	166.06471	1368.94238	-773.86011	179.67934	1415.13184	-777.72644	242.70297	1198.70532	-194.38812	698.51147	1183.94128	-136.32942	574.58252	1113.89502	-127.45329	748.89679	1103.66858	-71.01800	621.18530	1119.89502	-10.49088	488.68262	1123.16394	86.42498	352.76984	1054.06812	115.71523	402.55463	1017.79877	171.97887	301.11450	1034.00854	235.81021	211.41081	956.58252	229.84174	229.83968	1056.70154	303.06631	102.17119	1074.95300	235.13307	72.30903	
133	0.660	1169.96594	-412.18771	1307.59399	1128.42432	-570.11847	1280.20251	1300.72400	-400.25433	1262.70093	1232.16174	-513.69641	1203.35693	895.13940	-542.08569	1293.89844	838.05463	-431.56757	1268.48291	814.79034	-493.02621	1294.15771	671.78217	-491.85571	1240.77771	596.02844	-448.37119	1241.82202	601.86572	-473.50977	1196.67236	1405.91968	-415.32068	1150.93835	1424.80811	-468.90015	976.49200	1484.62109	-467.88751	1025.37500	1468.42798	-540.50818	1081.31482	1404.86621	-654.62878	1133.10620	1453.56006	-667.53259	1117.84729	1042.88538	-532.30225	818.33984	949.66541	-364.70410	921.41638	1186.81494	-320.51468	850.61572	983.62390	-308.04700	932.58832	1025.39209	-592.66504	770.30548	1109.43445	-661.18860	711.19019	1085.54272	-685.23450	665.02618	967.47015	-585.30640	676.04791	1051.79431	-645.09631	622.93365	1186.29150	-732.78448	552.13257	1238.71375	-759.57532	457.98788	1298.68542	-742.23151	355.46597	1194.57202	-700.87555	439.48410	1245.30713	-677.28064	337.82388	1336.68140	-686.54364	200.23347	1372.32922	-607.90649	161.63693	1376.30408	-788.92078	176.43028	1421.31787	-792.17706	240.28441	1207.54285	-205.60829	699.49359	1190.49451	-147.25139	576.06354	1124.73132	-137.74956	751.94067	1112.13672	-81.22662	624.38257	1125.78699	-20.13151	492.02963	1128.30054	76.92510	356.49930	1059.77246	106.52115	406.71729	1023.37555	163.44374	305.56277	1039.56299	227.17969	216.08192	961.97028	221.15314	235.27077	1062.60754	295.09769	108.23758	1078.27246	227.72185	75.06190	
